<?xml version="1.0" encoding="UTF-8"?>
<!DOCTYPE svg PUBLIC "-//W3C//DTD SVG 1.1//EN" "http://www.w3.org/Graphics/SVG/1.1/DTD/svg11.dtd">
<!-- Creator: CorelDRAW 2018 (64-Bit) -->
<svg xmlns="http://www.w3.org/2000/svg" xml:space="preserve" width="210mm" height="297mm" version="1.1" style="shape-rendering:geometricPrecision; text-rendering:geometricPrecision; image-rendering:optimizeQuality; fill-rule:evenodd; clip-rule:evenodd"
viewBox="0 0 21000 29700"
 xmlns:xlink="http://www.w3.org/1999/xlink">
 <defs>
  <style type="text/css">
   <![CDATA[
    .fil0 {fill:none}
   ]]>
  </style>
 </defs>
 <g id="Layer_x0020_1">
  <metadata id="CorelCorpID_0Corel-Layer"/>
  <g id="_2375780717760">
   <path class="fil0" d="M7175.08 16184.62c-71.52,0 -132.32,-23.82 -182.38,-71.49 -50.06,-48.89 -75.09,-106.94 -75.09,-174.15 0,-68.45 25.02,-127.1 75.09,-175.99 50.06,-48.89 110.87,-73.33 182.38,-73.33 72.71,0 134.09,24.44 184.16,73.33 51.26,48.89 76.88,107.54 76.88,175.99 0,67.21 -25.62,125.26 -76.88,174.15 -50.06,47.67 -111.44,71.49 -184.16,71.49z"/>
   <path class="fil0" d="M10034.18 16144.29l-464.89 0 -1224.78 -1932.26c-30.99,-48.89 -56.63,-99.62 -76.88,-152.17l-10.74 0.01c9.54,56.23 14.31,176.61 14.31,361.15l0 1723.28 -411.26 -0.01 0 -2628.9 495.28 0 1183.68 1886.43c50.06,78.24 82.25,132.01 96.56,161.33l7.14 -0.01c-11.91,-69.65 -17.88,-187.59 -17.88,-353.83l0 -1693.93 409.46 0.01 0 2628.9z"/>
   <polygon class="fil0" points="12036.82,16144.29 10597.47,16144.29 10597.47,13515.39 11979.61,13515.39 11979.61,13885.72 11023.03,13885.71 11023.03,14630 11904.52,14630 11904.52,14998.5 11023.03,14998.5 11023.03,15775.8 12036.82,15775.8 "/>
   <polygon class="fil0" points="14082.39,13885.71 13345.73,13885.71 13345.73,16144.28 12920.17,16144.29 12920.17,13885.72 12185.3,13885.71 12185.3,13515.38 14082.39,13515.39 "/>
  </g>
 </g>
</svg>
